<?xml version="1.0" encoding="UTF-8"?>
<svg xmlns="http://www.w3.org/2000/svg" width="1600" height="900" viewBox="0 0 1600 900">
  <defs>
    <linearGradient id="gRad" x1="0" y1="0" x2="1" y2="1">
      <stop offset="0%" stop-color="#0b0b0f"/>
      <stop offset="100%" stop-color="#0a0a12"/>
    </linearGradient>

    <!-- Subtle grid -->
    <pattern id="grid" width="40" height="40" patternUnits="userSpaceOnUse">
      <path d="M 40 0 L 0 0 0 40" fill="none" stroke="#ff2244" stroke-opacity="0.08" stroke-width="1"/>
      <path d="M 40 20 L 0 20" fill="none" stroke="#ff2244" stroke-opacity="0.04" stroke-width="1"/>
      <path d="M 20 40 L 20 0" fill="none" stroke="#ff2244" stroke-opacity="0.04" stroke-width="1"/>
    </pattern>

    <!-- Diagonal scanlines -->
    <pattern id="scan" width="6" height="6" patternUnits="userSpaceOnUse" patternTransform="rotate(45)">
      <rect width="3" height="6" fill="#ff003d" fill-opacity=".03"/>
    </pattern>

    <!-- Hex pattern -->
    <pattern id="hex" width="70" height="60.62" patternUnits="userSpaceOnUse" patternTransform="scale(1)">
      <path d="M17.5 0 L52.5 0 L70 30.31 L52.5 60.62 L17.5 60.62 L0 30.31 Z"
            fill="none" stroke="#ff3355" stroke-opacity=".05" stroke-width="1"/>
    </pattern>

    <!-- Red glow -->
    <filter id="glow">
      <feGaussianBlur stdDeviation="40" result="b"/>
      <feMerge>
        <feMergeNode in="b"/>
        <feMergeNode in="SourceGraphic"/>
      </feMerge>
    </filter>

    <!-- Small glow -->
    <filter id="smallGlow">
      <feGaussianBlur stdDeviation="10" result="b"/>
      <feMerge>
        <feMergeNode in="b"/>
        <feMergeNode in="SourceGraphic"/>
      </feMerge>
    </filter>
  </defs>

  <!-- Base gradient -->
  <rect width="100%" height="100%" fill="url(#gRad)"/>

  <!-- Hex grid background -->
  <rect width="100%" height="100%" fill="url(#hex)"/>
  <!-- Main grid -->
  <rect width="100%" height="100%" fill="url(#grid)"/>
  <!-- Scanlines -->
  <rect width="100%" height="100%" fill="url(#scan)"/>

  <!-- Glows / nodes -->
  <g filter="url(#glow)" opacity="0.45">
    <circle cx="1300" cy="170" r="140" fill="#ff003d"/>
    <circle cx="250" cy="700" r="170" fill="#ff2244" opacity=".9"/>
  </g>

  <!-- Smaller cyber nodes -->
  <g fill="#ff3355" opacity=".85" filter="url(#smallGlow)">
    <circle cx="420" cy="180" r="6"/>
    <circle cx="520" cy="260" r="5"/>
    <circle cx="980" cy="560" r="6"/>
    <circle cx="1180" cy="420" r="5"/>
    <circle cx="760" cy="300" r="4"/>
  </g>

  <!-- Frame vignette -->
  <rect x="0" y="0" width="1600" height="900" fill="none" stroke="#ff003d" stroke-opacity=".08" stroke-width="2"/>
</svg>
